<mxfile host="app.diagrams.net" agent="Mozilla/5.0 (Windows NT 10.0; Win64; x64) AppleWebKit/537.36 (KHTML, like Gecko) Chrome/134.0.0.0 Safari/537.36" version="26.1.1">
  <diagram id="C5RBs43oDa-KdzZeNtuy" name="Page-1">
    <mxGraphModel dx="2876" dy="1123" grid="1" gridSize="10" guides="1" tooltips="1" connect="1" arrows="1" fold="1" page="1" pageScale="1" pageWidth="827" pageHeight="1169" math="0" shadow="0">
      <root>
        <mxCell id="WIyWlLk6GJQsqaUBKTNV-0" />
        <mxCell id="WIyWlLk6GJQsqaUBKTNV-1" parent="WIyWlLk6GJQsqaUBKTNV-0" />
        <mxCell id="mk76olG0EZ5WUn1r8iPk-2" value="" style="points=[[0.25,0,0],[0.5,0,0],[0.75,0,0],[1,0.25,0],[1,0.5,0],[1,0.75,0],[0.75,1,0],[0.5,1,0],[0.25,1,0],[0,0.75,0],[0,0.5,0],[0,0.25,0]];shape=mxgraph.bpmn.task2;whiteSpace=wrap;rectStyle=rounded;size=10;html=1;container=1;expand=0;collapsible=0;taskMarker=abstract;bpmnShapeType=subprocess;isLoopSub=1;outline=eventInt;symbol=parallelMultiple;" vertex="1" parent="WIyWlLk6GJQsqaUBKTNV-1">
          <mxGeometry x="240" y="110" width="120" height="80" as="geometry" />
        </mxCell>
        <mxCell id="mk76olG0EZ5WUn1r8iPk-8" value="&lt;font style=&quot;font-size: 10px;&quot;&gt;Interrupting Get&amp;nbsp;&lt;/font&gt;&lt;div&gt;&lt;font style=&quot;font-size: 10px;&quot;&gt;Touch Coordinates&lt;/font&gt;&lt;/div&gt;" style="text;html=1;align=center;verticalAlign=middle;resizable=0;points=[];autosize=1;strokeColor=none;fillColor=none;" vertex="1" parent="WIyWlLk6GJQsqaUBKTNV-1">
          <mxGeometry x="245" y="70" width="110" height="40" as="geometry" />
        </mxCell>
        <mxCell id="mk76olG0EZ5WUn1r8iPk-16" style="edgeStyle=orthogonalEdgeStyle;rounded=0;orthogonalLoop=1;jettySize=auto;html=1;exitX=1;exitY=0.5;exitDx=0;exitDy=0;exitPerimeter=0;" edge="1" parent="WIyWlLk6GJQsqaUBKTNV-1" source="mk76olG0EZ5WUn1r8iPk-12">
          <mxGeometry relative="1" as="geometry">
            <mxPoint x="220" y="470" as="targetPoint" />
            <Array as="points">
              <mxPoint x="360" y="560" />
              <mxPoint x="360" y="470" />
            </Array>
          </mxGeometry>
        </mxCell>
        <mxCell id="mk76olG0EZ5WUn1r8iPk-17" value="Not Set" style="edgeLabel;html=1;align=center;verticalAlign=middle;resizable=0;points=[];" vertex="1" connectable="0" parent="mk76olG0EZ5WUn1r8iPk-16">
          <mxGeometry x="-0.8173" relative="1" as="geometry">
            <mxPoint x="6" as="offset" />
          </mxGeometry>
        </mxCell>
        <mxCell id="mk76olG0EZ5WUn1r8iPk-21" value="" style="edgeStyle=orthogonalEdgeStyle;rounded=0;orthogonalLoop=1;jettySize=auto;html=1;" edge="1" parent="WIyWlLk6GJQsqaUBKTNV-1" source="mk76olG0EZ5WUn1r8iPk-12" target="mk76olG0EZ5WUn1r8iPk-20">
          <mxGeometry relative="1" as="geometry" />
        </mxCell>
        <mxCell id="mk76olG0EZ5WUn1r8iPk-38" value="Set" style="edgeLabel;html=1;align=center;verticalAlign=middle;resizable=0;points=[];" vertex="1" connectable="0" parent="mk76olG0EZ5WUn1r8iPk-21">
          <mxGeometry x="-0.3704" y="3" relative="1" as="geometry">
            <mxPoint x="-3" as="offset" />
          </mxGeometry>
        </mxCell>
        <mxCell id="mk76olG0EZ5WUn1r8iPk-12" value="Pend&amp;nbsp;&lt;div&gt;Circles&amp;nbsp;&lt;span style=&quot;background-color: transparent; color: light-dark(rgb(0, 0, 0), rgb(255, 255, 255));&quot;&gt;Flag&lt;/span&gt;&lt;/div&gt;" style="strokeWidth=2;html=1;shape=mxgraph.flowchart.decision;whiteSpace=wrap;fillColor=#ffe6cc;strokeColor=#d79b00;" vertex="1" parent="WIyWlLk6GJQsqaUBKTNV-1">
          <mxGeometry x="160" y="500" width="120" height="120" as="geometry" />
        </mxCell>
        <mxCell id="mk76olG0EZ5WUn1r8iPk-15" value="" style="edgeStyle=orthogonalEdgeStyle;rounded=0;orthogonalLoop=1;jettySize=auto;html=1;" edge="1" parent="WIyWlLk6GJQsqaUBKTNV-1" source="mk76olG0EZ5WUn1r8iPk-13" target="mk76olG0EZ5WUn1r8iPk-12">
          <mxGeometry relative="1" as="geometry" />
        </mxCell>
        <mxCell id="mk76olG0EZ5WUn1r8iPk-13" value="Enter Task" style="strokeWidth=2;html=1;shape=mxgraph.flowchart.start_2;whiteSpace=wrap;" vertex="1" parent="WIyWlLk6GJQsqaUBKTNV-1">
          <mxGeometry x="180" y="360" width="80" height="75" as="geometry" />
        </mxCell>
        <mxCell id="mk76olG0EZ5WUn1r8iPk-36" style="edgeStyle=orthogonalEdgeStyle;rounded=0;orthogonalLoop=1;jettySize=auto;html=1;" edge="1" parent="WIyWlLk6GJQsqaUBKTNV-1" source="mk76olG0EZ5WUn1r8iPk-20">
          <mxGeometry relative="1" as="geometry">
            <mxPoint x="220" y="670" as="targetPoint" />
            <Array as="points">
              <mxPoint x="60" y="770" />
              <mxPoint x="60" y="670" />
            </Array>
          </mxGeometry>
        </mxCell>
        <mxCell id="mk76olG0EZ5WUn1r8iPk-37" value="Queue Empty" style="edgeLabel;html=1;align=center;verticalAlign=middle;resizable=0;points=[];" vertex="1" connectable="0" parent="mk76olG0EZ5WUn1r8iPk-36">
          <mxGeometry x="-0.7371" y="5" relative="1" as="geometry">
            <mxPoint y="-5" as="offset" />
          </mxGeometry>
        </mxCell>
        <mxCell id="mk76olG0EZ5WUn1r8iPk-43" value="" style="edgeStyle=orthogonalEdgeStyle;rounded=0;orthogonalLoop=1;jettySize=auto;html=1;" edge="1" parent="WIyWlLk6GJQsqaUBKTNV-1" source="mk76olG0EZ5WUn1r8iPk-20" target="mk76olG0EZ5WUn1r8iPk-42">
          <mxGeometry relative="1" as="geometry" />
        </mxCell>
        <mxCell id="mk76olG0EZ5WUn1r8iPk-20" value="Wait For Data&amp;nbsp;&lt;div&gt;in Queue&lt;/div&gt;" style="strokeWidth=2;html=1;shape=mxgraph.flowchart.decision;whiteSpace=wrap;fillColor=#fff2cc;strokeColor=#d6b656;" vertex="1" parent="WIyWlLk6GJQsqaUBKTNV-1">
          <mxGeometry x="160" y="710" width="120" height="120" as="geometry" />
        </mxCell>
        <mxCell id="mk76olG0EZ5WUn1r8iPk-23" value="Touch Screen&amp;nbsp;&lt;div&gt;Queue&lt;/div&gt;" style="strokeWidth=2;html=1;shape=mxgraph.flowchart.stored_data;whiteSpace=wrap;fillColor=#ffe6cc;strokeColor=#d79b00;" vertex="1" parent="WIyWlLk6GJQsqaUBKTNV-1">
          <mxGeometry x="470" y="970" width="100" height="60" as="geometry" />
        </mxCell>
        <mxCell id="mk76olG0EZ5WUn1r8iPk-28" style="edgeStyle=orthogonalEdgeStyle;rounded=0;orthogonalLoop=1;jettySize=auto;html=1;" edge="1" parent="WIyWlLk6GJQsqaUBKTNV-1" source="mk76olG0EZ5WUn1r8iPk-24" target="mk76olG0EZ5WUn1r8iPk-27">
          <mxGeometry relative="1" as="geometry" />
        </mxCell>
        <mxCell id="mk76olG0EZ5WUn1r8iPk-24" value="Enter ISR" style="strokeWidth=2;html=1;shape=mxgraph.flowchart.start_2;whiteSpace=wrap;" vertex="1" parent="WIyWlLk6GJQsqaUBKTNV-1">
          <mxGeometry x="480" y="360" width="80" height="75" as="geometry" />
        </mxCell>
        <mxCell id="mk76olG0EZ5WUn1r8iPk-47" value="" style="edgeStyle=orthogonalEdgeStyle;rounded=0;orthogonalLoop=1;jettySize=auto;html=1;" edge="1" parent="WIyWlLk6GJQsqaUBKTNV-1" source="mk76olG0EZ5WUn1r8iPk-27" target="mk76olG0EZ5WUn1r8iPk-46">
          <mxGeometry relative="1" as="geometry" />
        </mxCell>
        <mxCell id="mk76olG0EZ5WUn1r8iPk-27" value="Disable Interrupts" style="rounded=1;whiteSpace=wrap;html=1;fillColor=#f8cecc;strokeColor=#b85450;" vertex="1" parent="WIyWlLk6GJQsqaUBKTNV-1">
          <mxGeometry x="460" y="490" width="120" height="60" as="geometry" />
        </mxCell>
        <mxCell id="mk76olG0EZ5WUn1r8iPk-32" value="" style="edgeStyle=orthogonalEdgeStyle;rounded=0;orthogonalLoop=1;jettySize=auto;html=1;" edge="1" parent="WIyWlLk6GJQsqaUBKTNV-1" source="mk76olG0EZ5WUn1r8iPk-29" target="mk76olG0EZ5WUn1r8iPk-30">
          <mxGeometry relative="1" as="geometry" />
        </mxCell>
        <mxCell id="mk76olG0EZ5WUn1r8iPk-29" value="Get Touch Screen&lt;div&gt;Coordinates&lt;/div&gt;" style="rounded=1;whiteSpace=wrap;html=1;fillColor=#e1d5e7;strokeColor=#9673a6;" vertex="1" parent="WIyWlLk6GJQsqaUBKTNV-1">
          <mxGeometry x="460" y="730" width="120" height="60" as="geometry" />
        </mxCell>
        <mxCell id="mk76olG0EZ5WUn1r8iPk-33" value="" style="edgeStyle=orthogonalEdgeStyle;rounded=0;orthogonalLoop=1;jettySize=auto;html=1;" edge="1" parent="WIyWlLk6GJQsqaUBKTNV-1" source="mk76olG0EZ5WUn1r8iPk-30" target="mk76olG0EZ5WUn1r8iPk-23">
          <mxGeometry relative="1" as="geometry" />
        </mxCell>
        <mxCell id="mk76olG0EZ5WUn1r8iPk-30" value="Post Data to Queue" style="rounded=1;whiteSpace=wrap;html=1;fillColor=#fff2cc;strokeColor=#d6b656;" vertex="1" parent="WIyWlLk6GJQsqaUBKTNV-1">
          <mxGeometry x="460" y="850" width="120" height="60" as="geometry" />
        </mxCell>
        <mxCell id="mk76olG0EZ5WUn1r8iPk-45" value="" style="edgeStyle=orthogonalEdgeStyle;rounded=0;orthogonalLoop=1;jettySize=auto;html=1;" edge="1" parent="WIyWlLk6GJQsqaUBKTNV-1" source="mk76olG0EZ5WUn1r8iPk-42" target="mk76olG0EZ5WUn1r8iPk-44">
          <mxGeometry relative="1" as="geometry" />
        </mxCell>
        <mxCell id="mk76olG0EZ5WUn1r8iPk-42" value="Convert Coordinates&lt;div&gt;to Cell&lt;/div&gt;" style="rounded=1;whiteSpace=wrap;html=1;fillColor=#e1d5e7;strokeColor=#9673a6;" vertex="1" parent="WIyWlLk6GJQsqaUBKTNV-1">
          <mxGeometry x="160" y="870" width="120" height="60" as="geometry" />
        </mxCell>
        <mxCell id="mk76olG0EZ5WUn1r8iPk-52" value="" style="edgeStyle=orthogonalEdgeStyle;rounded=0;orthogonalLoop=1;jettySize=auto;html=1;" edge="1" parent="WIyWlLk6GJQsqaUBKTNV-1" source="mk76olG0EZ5WUn1r8iPk-44" target="mk76olG0EZ5WUn1r8iPk-51">
          <mxGeometry relative="1" as="geometry" />
        </mxCell>
        <mxCell id="mk76olG0EZ5WUn1r8iPk-44" value="Draw Circle" style="rounded=1;whiteSpace=wrap;html=1;" vertex="1" parent="WIyWlLk6GJQsqaUBKTNV-1">
          <mxGeometry x="160" y="970" width="120" height="60" as="geometry" />
        </mxCell>
        <mxCell id="mk76olG0EZ5WUn1r8iPk-48" value="" style="edgeStyle=orthogonalEdgeStyle;rounded=0;orthogonalLoop=1;jettySize=auto;html=1;" edge="1" parent="WIyWlLk6GJQsqaUBKTNV-1" source="mk76olG0EZ5WUn1r8iPk-46" target="mk76olG0EZ5WUn1r8iPk-29">
          <mxGeometry relative="1" as="geometry" />
        </mxCell>
        <mxCell id="mk76olG0EZ5WUn1r8iPk-46" value="Get Memory Block&lt;div&gt;for Coordinates&lt;/div&gt;" style="rounded=1;whiteSpace=wrap;html=1;fillColor=#dae8fc;strokeColor=#6c8ebf;" vertex="1" parent="WIyWlLk6GJQsqaUBKTNV-1">
          <mxGeometry x="460" y="610" width="120" height="60" as="geometry" />
        </mxCell>
        <mxCell id="mk76olG0EZ5WUn1r8iPk-49" style="edgeStyle=orthogonalEdgeStyle;rounded=0;orthogonalLoop=1;jettySize=auto;html=1;entryX=1;entryY=0.5;entryDx=0;entryDy=0;entryPerimeter=0;dashed=1;dashPattern=1 1;" edge="1" parent="WIyWlLk6GJQsqaUBKTNV-1" source="mk76olG0EZ5WUn1r8iPk-23" target="mk76olG0EZ5WUn1r8iPk-20">
          <mxGeometry relative="1" as="geometry" />
        </mxCell>
        <mxCell id="mk76olG0EZ5WUn1r8iPk-55" value="" style="edgeStyle=orthogonalEdgeStyle;rounded=0;orthogonalLoop=1;jettySize=auto;html=1;" edge="1" parent="WIyWlLk6GJQsqaUBKTNV-1" source="mk76olG0EZ5WUn1r8iPk-51" target="mk76olG0EZ5WUn1r8iPk-54">
          <mxGeometry relative="1" as="geometry" />
        </mxCell>
        <mxCell id="mk76olG0EZ5WUn1r8iPk-51" value="Release Memory&lt;div&gt;for Coordinates&lt;/div&gt;" style="rounded=1;whiteSpace=wrap;html=1;fillColor=#dae8fc;strokeColor=#6c8ebf;" vertex="1" parent="WIyWlLk6GJQsqaUBKTNV-1">
          <mxGeometry x="160" y="1075" width="120" height="60" as="geometry" />
        </mxCell>
        <mxCell id="mk76olG0EZ5WUn1r8iPk-59" value="" style="edgeStyle=orthogonalEdgeStyle;rounded=0;orthogonalLoop=1;jettySize=auto;html=1;" edge="1" parent="WIyWlLk6GJQsqaUBKTNV-1" source="mk76olG0EZ5WUn1r8iPk-54" target="mk76olG0EZ5WUn1r8iPk-57">
          <mxGeometry relative="1" as="geometry" />
        </mxCell>
        <mxCell id="mk76olG0EZ5WUn1r8iPk-54" value="Delay for 500ms" style="rounded=1;whiteSpace=wrap;html=1;" vertex="1" parent="WIyWlLk6GJQsqaUBKTNV-1">
          <mxGeometry x="160" y="1185" width="120" height="60" as="geometry" />
        </mxCell>
        <mxCell id="mk76olG0EZ5WUn1r8iPk-56" value="Enable Interrupts" style="rounded=1;whiteSpace=wrap;html=1;fillColor=#f8cecc;strokeColor=#b85450;" vertex="1" parent="WIyWlLk6GJQsqaUBKTNV-1">
          <mxGeometry x="160" y="1385" width="120" height="60" as="geometry" />
        </mxCell>
        <mxCell id="mk76olG0EZ5WUn1r8iPk-58" value="" style="edgeStyle=orthogonalEdgeStyle;rounded=0;orthogonalLoop=1;jettySize=auto;html=1;" edge="1" parent="WIyWlLk6GJQsqaUBKTNV-1" source="mk76olG0EZ5WUn1r8iPk-57" target="mk76olG0EZ5WUn1r8iPk-56">
          <mxGeometry relative="1" as="geometry" />
        </mxCell>
        <mxCell id="mk76olG0EZ5WUn1r8iPk-57" value="Set Crosses Flag" style="rounded=1;whiteSpace=wrap;html=1;fillColor=#ffe6cc;strokeColor=#d79b00;" vertex="1" parent="WIyWlLk6GJQsqaUBKTNV-1">
          <mxGeometry x="160" y="1285" width="120" height="60" as="geometry" />
        </mxCell>
        <mxCell id="mk76olG0EZ5WUn1r8iPk-60" style="edgeStyle=orthogonalEdgeStyle;rounded=0;orthogonalLoop=1;jettySize=auto;html=1;entryX=0;entryY=0.5;entryDx=0;entryDy=0;entryPerimeter=0;" edge="1" parent="WIyWlLk6GJQsqaUBKTNV-1" source="mk76olG0EZ5WUn1r8iPk-56" target="mk76olG0EZ5WUn1r8iPk-13">
          <mxGeometry relative="1" as="geometry">
            <Array as="points">
              <mxPoint x="-60" y="1415" />
              <mxPoint x="-60" y="398" />
            </Array>
          </mxGeometry>
        </mxCell>
      </root>
    </mxGraphModel>
  </diagram>
</mxfile>
